<svg xmlns="http://www.w3.org/2000/svg" xmlns:xlink="http://www.w3.org/1999/xlink" version="1.1" x="0px" y="0px" viewBox="0 0 512 640" style="enable-background:new 0 0 512 512;" xml:space="preserve"><g><g><path d="M139.489,407.859c-0.001-0.005-0.002-0.009-0.003-0.014c-0.016-0.107-0.042-0.215-0.065-0.323    c-0.057-0.264-0.112-0.529-0.153-0.795c-1.773-8.788-6.082-16.775-12.462-23.104c-3.042-3.095-6.54-5.702-10.433-7.786    c-0.082-0.044-0.163-0.091-0.242-0.141c-0.729-0.458-1.469-0.835-2.33-1.187c-0.094-0.038-0.187-0.08-0.278-0.126    c-0.713-0.356-1.542-0.69-2.33-1.002c-0.117-0.047-0.232-0.099-0.345-0.156c-0.065-0.032-0.276-0.104-0.429-0.157l-0.143-0.049    c-0.056-0.02-0.112-0.04-0.168-0.062c-0.684-0.271-1.464-0.524-2.318-0.751c-0.063-0.017-0.124-0.035-0.185-0.055    c-1.004-0.319-2.026-0.589-3.038-0.801c-3.262-0.747-6.642-1.118-10.117-1.118c-12.111,0-23.535,4.751-32.168,13.379    c-11.381,11.381-27.946,59.879-40.042,105.157c6.014-1.752,14.322-4.223,21.454-6.344c6.25-1.858,11.805-3.511,14.652-4.334    c35.956-11.55,60.904-22.476,68.456-29.979c8.619-8.612,13.37-20.055,13.37-32.21c0-2.65-0.218-5.249-0.668-7.945    C139.499,407.926,139.493,407.892,139.489,407.859z"/><path d="M190.568,264.268c-32.304,37.51-59.398,73.229-76.965,101.445c0.182,0.069,0.38,0.154,0.583,0.248    c1.019,0.357,1.969,0.799,2.782,1.203c0.012,0.005,0.022,0.011,0.034,0.016c0.589,0.246,1.155,0.508,1.702,0.788    c0.167,0.086,0.324,0.186,0.488,0.275c0.361,0.196,0.726,0.39,1.075,0.605c4.559,2.456,8.666,5.527,12.207,9.132    c6.467,6.413,11.13,14.318,13.623,23.035c28.408-17.507,64.659-44.91,103.006-77.891c-7.572-11.773-16.509-22.868-26.598-33.017    C212.957,280.561,202.224,271.877,190.568,264.268z"/><path d="M413.919,59.777c-69.053,46.96-140.403,111.91-218.01,198.441c11.741,7.758,22.583,16.563,32.262,26.24    c10.204,10.265,19.258,21.461,26.993,33.33c3.793-3.354,7.529-6.636,11.214-9.869c15.735-13.81,30.599-26.855,46.33-42.582    l7.239-7.72c0,0,0.003-0.002,0.004-0.004c0.001,0,0.001-0.001,0.002-0.002c0.435-0.462,0.87-0.934,1.314-1.417    c0.594-0.645,1.207-1.308,1.856-1.991c0.002-0.002,0.003-0.003,0.004-0.005l5.654-6.071l0.001-0.001l0.259-0.277    c0.781-0.838,1.563-1.676,2.294-2.513c0.016-0.019,0.035-0.03,0.052-0.049c0.016-0.018,0.026-0.037,0.042-0.055l20.927-22.366    c0.003-0.003,0.007-0.006,0.01-0.009s0.005-0.007,0.008-0.01c1.012-1.068,1.965-2.08,2.795-2.976    c0.836-0.899,1.553-1.674,2.211-2.391c0.002-0.002,0.004-0.003,0.005-0.005c0.003-0.003,0.005-0.007,0.008-0.01l2.271-2.452    c40.885-45.414,74.304-86.38,94.103-115.354c33.017-48.639,38.347-71.709,37.671-77.52    C485.676,21.435,462.713,26.705,413.919,59.777z"/></g></g><text x="0" y="527" fill="#000000" font-size="5px" font-weight="bold" font-family="'Helvetica Neue', Helvetica, Arial-Unicode, Arial, Sans-serif">Created by ibrandify</text><text x="0" y="532" fill="#000000" font-size="5px" font-weight="bold" font-family="'Helvetica Neue', Helvetica, Arial-Unicode, Arial, Sans-serif">from the Noun Project</text></svg>