<svg xmlns="http://www.w3.org/2000/svg" data-name="Layer 1" viewBox="0 0 100 125" x="0px" y="0px"><title>School Icon Set Glyph</title><path d="M25.44,53,16.3,43.88,29.12,31.06,48.87,11.31A18.12,18.12,0,0,1,70.23,8.22Z"/><path d="M27.74,55.32,73,10.06l.1.07c.44.36.88.76,1.31,1.18h0l14.3,14.3.15.17c.36.37.7.74,1,1.12L90,27,44.71,72.28Z"/><path d="M88.71,51.15,56.15,83.72,47,74.59l44.8-44.8A18,18,0,0,1,88.71,51.15Z"/><path d="M48.5,90.54H74.44V94H9.25V90.54H27.13a18.15,18.15,0,0,1-1.55-1.78l-14.3-14.3a18.09,18.09,0,0,1,0-25.55L14,46.19,24.29,56.47,43.55,75.74,53.84,86l-2.72,2.73A19.11,19.11,0,0,1,48.5,90.54Z"/><text x="0" y="115" fill="#000000" font-size="5px" font-weight="bold" font-family="'Helvetica Neue', Helvetica, Arial-Unicode, Arial, Sans-serif">Created by Anhar Ismail</text><text x="0" y="120" fill="#000000" font-size="5px" font-weight="bold" font-family="'Helvetica Neue', Helvetica, Arial-Unicode, Arial, Sans-serif">from the Noun Project</text></svg>