<svg xmlns="http://www.w3.org/2000/svg" xmlns:xlink="http://www.w3.org/1999/xlink" version="1.1" x="0px" y="0px" viewBox="0 0 90 112.5" enable-background="new 0 0 90 90" xml:space="preserve"><path d="M51.213,10.997h2.291c1.328,0,2.402,1.066,2.402,2.4v12.448c0,1.333-1.074,2.402-2.402,2.402h-2.291  c-1.328,0-2.396-1.068-2.396-2.402V13.397C48.816,12.063,49.885,10.997,51.213,10.997z M27.848,8.559c-1.141,0-1.99,0.49-1.99,1.833  v18.063c0,1.74,1.361,3.094,3.096,3.094h28.963c1.734,0,3.088-1.354,3.088-3.094V10.502c0-1.777-1.035-1.944-3.947-1.944H27.848z"/><path d="M79.622,26.069L67.055,12.502C65.324,10.632,65,11.304,65,13.241v16.167C65,32.643,62.27,36,59.035,36H27.26  C24.025,36,21,32.643,21,29.408V8.819C9,10.173,8,17.002,8,23.637v49.755C8,77.861,12.092,81,16.566,81h56.762  C77.797,81,81,77.861,81,73.392V29.831C81,28.002,81.05,27.498,79.622,26.069z M67,67.516C67,69.993,64.992,72,62.516,72H27.484  C25.008,72,23,69.993,23,67.516V57.484C23,55.007,25.008,53,27.484,53h35.031C64.992,53,67,55.007,67,57.484V67.516z"/><text x="0" y="105" fill="#000000" font-size="5px" font-weight="bold" font-family="'Helvetica Neue', Helvetica, Arial-Unicode, Arial, Sans-serif">Created by Cuputo</text><text x="0" y="110" fill="#000000" font-size="5px" font-weight="bold" font-family="'Helvetica Neue', Helvetica, Arial-Unicode, Arial, Sans-serif">from the Noun Project</text></svg>