<svg xmlns="http://www.w3.org/2000/svg" viewBox="0 0 64 80" x="0px" y="0px"><title>share,next,right,arrow</title><g data-name="Layer 3"><path d="M34,21.54V8.64a.18.18,0,0,1,.3-.14L60.94,30.69a.18.18,0,0,1,0,.28L34.3,53.15A.18.18,0,0,1,34,53V40.86a1.14,1.14,0,0,0-.94-1.12c-3.57-.64-16.75-1.59-29.47,15.7a.26.26,0,0,1-.47-.12C2.7,50.31,1.67,21.54,34,21.54"/></g><text x="0" y="79" fill="#000000" font-size="5px" font-weight="bold" font-family="'Helvetica Neue', Helvetica, Arial-Unicode, Arial, Sans-serif">Created by Fauzan Adiima</text><text x="0" y="84" fill="#000000" font-size="5px" font-weight="bold" font-family="'Helvetica Neue', Helvetica, Arial-Unicode, Arial, Sans-serif">from the Noun Project</text></svg>